<?xml version="1.0" encoding="utf-8"?>
<!-- Generator: Adobe Illustrator 21.0.2, SVG Export Plug-In . SVG Version: 6.00 Build 0)  -->
<svg version="1.1" id="图层_1" xmlns="http://www.w3.org/2000/svg" xmlns:xlink="http://www.w3.org/1999/xlink" x="0px" y="0px"
	 viewBox="0 0 35 35" style="enable-background:new 0 0 35 35;" xml:space="preserve">
<style type="text/css">
	.st0{opacity:0.8;}
	.st1{fill:#2C7EE2;}
	.st2{fill:#FFFFFF;}
</style>
<g class="st0">
	
		<image style="overflow:visible;opacity:0.4;" width="40" height="44" xlink:href="BA400E1EA8A296F4.png"  transform="matrix(1 0 0 1 -2 -2)">
	</image>
	<g>
		<g>
			<circle class="st1" cx="13.6" cy="34.2" r="0.8"/>
			<g>
				<g>
					<path class="st1" d="M27.2,15.9c0.3,7.1-4.9,13-11.7,13.9c-0.6,0.1-1.8,2.3-1.8,2.3s-1.5-2.3-2.3-2.4
						C5.1,28.7,0.3,23.2,0.3,16.5c0-7.6,6.3-13.8,14-13.5C21.3,3.3,27,9,27.2,15.9z"/>
				</g>
			</g>
			<path class="st2" d="M20.6,16.5c-0.1-0.2-0.4-0.7-0.5-0.8l-0.7-1c0,0,0-0.1,0-0.3c0.1-0.3,0.2-1.3,0.2-1.7
				c-0.1-1.1-0.4-1.6-0.7-1.9c0.2-0.2,0.3-0.6,0.3-0.6c0-0.7-0.1-1.2-0.4-1.5C18.4,8.3,18,8.3,18,8.4l0,0c-0.2,0-0.4,0-0.6,0
				c-0.4,0-1.1-0.3-1.5-0.5c-0.2-0.1-0.4-0.1-0.5-0.2c-2.8-0.8-5.3,0.5-5.4,0.6c-2.2,1.2-2.5,2.9-2.4,4.1c0,0.7,0.5,1.8,0.9,2.5
				c0.1,0.2,0.2,0.4,0.2,0.5c0.5,1.2,0.7,2.4,0.7,2.4h0c0,0.1,0.1,0.2,0.3,0.2c0.2,0,0.3-0.1,0.3-0.3c0,0,0,0,0,0c0,0,0,0,0,0
				c0,0,0,0,0,0c0-0.2-0.3-1.3-0.7-2.5c0-0.1-0.1-0.3-0.2-0.5c-0.3-0.6-0.8-1.7-0.8-2.3c-0.1-1,0.3-2.5,2.2-3.5c0,0,2.4-1.3,5-0.5
				c0.1,0,0.3,0.1,0.4,0.2c0.5,0.2,1.2,0.5,1.7,0.5c0.2,0,0.5,0,0.7,0c0,0,0.2,0,0.3,0.1c0.2,0.2,0.3,0.5,0.2,1c0,0,0,0.2-0.2,0.3
				c-0.1,0.1-0.4,0-0.5,0c0,0-1.1-0.4-1.8-0.6c-0.4-0.1-0.7,0-0.8,0.2c-0.3,0.3-0.2,0.7-0.2,0.8c0,0.1,0.1,0.2,0.2,0.5
				c0.1,0.2,0.2,0.5,0.3,0.6c0.2,0.6-0.1,1.2-0.7,1.6c-0.1,0.1-1,0.6-1.2,1.3c-0.1,0.4,0,0.8,0.2,1.1l0,0c0,0.1,0.1,0.1,0.2,0.1
				c0.2,0,0.3-0.1,0.3-0.3c0-0.1,0-0.1-0.1-0.2c-0.1-0.2-0.2-0.5-0.1-0.7c0.2-0.6,0.9-1,0.9-1l0,0c1.1-0.8,1.1-1.7,1-2.2
				c0-0.2-0.2-0.5-0.3-0.7c-0.1-0.1-0.2-0.3-0.2-0.4c0-0.1,0-0.3,0-0.3c0,0,0.1,0,0.3,0c0.7,0.2,1.7,0.5,1.7,0.5
				C18,11,18.2,11,18.3,11l0,0l0,0c0,0,0.5,0.3,0.7,1.7c0,0.3-0.1,1.3-0.2,1.4c-0.1,0.3-0.1,0.6,0,0.8l0.7,1
				c0.2,0.2,0.4,0.6,0.4,0.7c0,0,0,0.1,0,0.1c0,0,0,0-0.1,0l0,0l0,0c0,0-0.1,0.1-0.3,0.1c0,0,0,0,0,0c-0.2,0-0.5,0.1-0.7,0.4
				c0,0.1-0.1,0.3,0,0.5L19,18L18.8,18c-0.2,0.1-0.3,0.3-0.3,0.6c0,0,0,0.1,0,0.1c-0.1,0.1-0.3,0.3-0.4,0.8c0,0.1,0,0.1,0,0.2
				c0,0.1,0.1,0.5,0,0.6c-0.1,0.1-0.2,0.1-0.5,0.1l0,0c0,0-1.1,0.1-2.4-0.1l-0.2,0L15,20.6c0,0.1-0.6,1.9,1.6,3.4
				c-1-0.1-2.5-0.2-3.9-0.9c-0.4-0.2-1.3-0.9-1.9-1.4c-0.2-0.1-0.3-0.3-0.5-0.4c-0.5-0.4-1.1-0.7-1.7-1.1c1.7-0.9,2.5-2.4,2.4-4.6h0
				c0-0.1-0.1-0.3-0.3-0.3c-0.2,0-0.3,0.1-0.3,0.3c0,0,0,0,0,0h0c0.2,2.9-1.5,3.8-2.1,4.1c-0.2,0.1-0.3,0.3-0.3,0.4
				c0,0.2,0.1,0.4,0.3,0.5c0.7,0.4,1.3,0.8,1.7,1.1c0.1,0.1,0.3,0.2,0.5,0.4c0.7,0.5,1.6,1.2,2.1,1.4c1.7,0.8,3.5,0.9,4.5,1h0
				c0.2,0,0.4-0.1,0.4-0.3c0.1-0.2,0-0.4-0.2-0.5c-1.7-1-1.8-2.2-1.7-2.7c1.2,0.2,2.2,0.1,2.3,0.1c0.4,0,0.8-0.1,0.9-0.4
				c0.2-0.2,0.1-0.6,0.1-1c0,0,0-0.1,0-0.1c0-0.3,0.1-0.4,0.2-0.4c0.2-0.1,0.2-0.3,0.2-0.5c0,0,0-0.1,0-0.1l0.1-0.1
				c0.2-0.1,0.4-0.4,0.2-0.7l-0.1-0.3c0,0,0.1-0.1,0.3-0.1c0,0,0.1,0,0.1,0c0.2-0.1,0.4-0.1,0.4-0.2C20.5,17.1,20.7,16.8,20.6,16.5
				L20.6,16.5z"/>
		</g>
	</g>
</g>
</svg>
