<?xml version="1.0" encoding="utf-8"?>
<!-- Generator: Adobe Illustrator 21.0.2, SVG Export Plug-In . SVG Version: 6.00 Build 0)  -->
<svg version="1.1" id="图层_1" xmlns="http://www.w3.org/2000/svg" xmlns:xlink="http://www.w3.org/1999/xlink" x="0px" y="0px"
	 viewBox="0 0 35 35" style="enable-background:new 0 0 35 35;" xml:space="preserve">
<style type="text/css">
	.st0{opacity:0.8;}
	.st1{fill:#7C7C7C;}
	.st2{fill:#FFFFFF;}
</style>
<g class="st0">
	
		<image style="overflow:visible;opacity:0.4;" width="34" height="38" xlink:href="19664680A3CB2CE4.png"  transform="matrix(1 0 0 1 1 4)">
	</image>
	<g>
		<g>
			<g>
				<circle class="st1" cx="13.2" cy="33.7" r="0.7"/>
			</g>
			<g>
				<g>
					<path class="st1" d="M24,19.2c0.2,5.6-3.9,10.3-9.3,11.1c-0.5,0.1-1.4,1.9-1.4,1.9s-1.2-1.8-1.8-1.9c-5-0.9-8.9-5.3-8.9-10.5
						c0-6,5-10.9,11.1-10.7C19.3,9.2,23.8,13.7,24,19.2z"/>
				</g>
			</g>
			<path class="st2" d="M18.7,19.7c-0.1-0.2-0.3-0.6-0.4-0.7l-0.6-0.8c0,0,0-0.1,0-0.2c0.1-0.2,0.2-1.1,0.2-1.4
				c-0.1-0.8-0.3-1.3-0.5-1.5c0.2-0.2,0.2-0.5,0.2-0.5c0-0.5-0.1-0.9-0.3-1.2c-0.3-0.2-0.6-0.2-0.6-0.2l0,0c-0.1,0-0.3,0-0.4,0
				c-0.3,0-0.9-0.2-1.2-0.4c-0.2-0.1-0.3-0.1-0.4-0.1c-2.2-0.7-4.2,0.4-4.3,0.5c-1.7,0.9-2,2.3-1.9,3.2c0,0.5,0.4,1.4,0.7,2
				c0.1,0.2,0.1,0.3,0.2,0.4c0.4,1,0.6,1.9,0.6,1.9h0c0,0.1,0.1,0.2,0.2,0.2c0.1,0,0.2-0.1,0.2-0.2c0,0,0,0,0,0c0,0,0,0,0,0
				c0,0,0,0,0,0c0-0.1-0.2-1-0.6-2c0-0.1-0.1-0.2-0.2-0.4c-0.2-0.5-0.6-1.4-0.6-1.8c-0.1-0.8,0.2-2,1.7-2.8c0,0,1.9-1.1,3.9-0.4
				c0.1,0,0.2,0.1,0.4,0.1c0.4,0.2,1,0.4,1.3,0.4c0.2,0,0.4,0,0.6,0c0,0,0.1,0,0.2,0.1c0.1,0.1,0.2,0.4,0.2,0.8c0,0,0,0.2-0.1,0.2
				c-0.1,0.1-0.3,0-0.4,0c0,0-0.9-0.3-1.4-0.4c-0.3-0.1-0.5,0-0.6,0.1c-0.2,0.2-0.2,0.5-0.1,0.6c0,0.1,0.1,0.2,0.2,0.4
				c0.1,0.2,0.2,0.4,0.2,0.5c0.1,0.5-0.1,0.9-0.6,1.3c-0.1,0.1-0.8,0.4-1,1.1c-0.1,0.3,0,0.6,0.2,0.9l0,0c0,0.1,0.1,0.1,0.2,0.1
				c0.1,0,0.2-0.1,0.2-0.2c0-0.1,0-0.1,0-0.1c-0.1-0.2-0.2-0.4-0.1-0.5c0.1-0.5,0.7-0.8,0.7-0.8l0,0c0.9-0.6,0.9-1.4,0.8-1.8
				c0-0.2-0.1-0.4-0.2-0.6c-0.1-0.1-0.1-0.3-0.1-0.3c0-0.1,0-0.2,0-0.2c0,0,0.1,0,0.2,0c0.5,0.1,1.4,0.4,1.4,0.4
				c0.2,0.1,0.3,0.1,0.5,0.1l0,0l0,0c0,0,0.4,0.2,0.5,1.3c0,0.2-0.1,1-0.1,1.1c-0.1,0.3-0.1,0.5,0,0.7l0.6,0.8
				c0.1,0.2,0.3,0.5,0.4,0.5c0,0,0,0.1,0,0.1c0,0,0,0,0,0l0,0l0,0c0,0-0.1,0-0.2,0.1c0,0,0,0,0,0c-0.1,0-0.4,0.1-0.5,0.3
				c0,0.1-0.1,0.2,0,0.4l0.1,0.2l-0.1,0c-0.2,0.1-0.3,0.3-0.2,0.5c0,0,0,0.1,0,0.1c-0.1,0.1-0.2,0.3-0.3,0.6c0,0,0,0.1,0,0.2
				c0,0.1,0,0.4,0,0.5c0,0.1-0.2,0.1-0.4,0.1l0,0c0,0-0.9,0.1-1.9-0.1l-0.2,0l-0.1,0.2c0,0.1-0.5,1.5,1.3,2.7c-0.8,0-2-0.2-3.1-0.7
				c-0.3-0.1-1-0.7-1.5-1.1c-0.1-0.1-0.3-0.2-0.4-0.3c-0.4-0.3-0.8-0.6-1.4-0.9c1.4-0.7,2-1.9,1.9-3.6h0c0-0.1-0.1-0.2-0.2-0.2
				c-0.1,0-0.2,0.1-0.2,0.2c0,0,0,0,0,0h0c0.2,2.3-1.2,3-1.7,3.2c-0.1,0.1-0.2,0.2-0.2,0.4c0,0.2,0.1,0.3,0.2,0.4
				c0.5,0.3,1,0.6,1.4,0.9c0.1,0.1,0.2,0.2,0.4,0.3c0.6,0.4,1.3,1,1.6,1.1c1.4,0.6,2.8,0.7,3.5,0.8h0c0.2,0,0.3-0.1,0.4-0.3
				c0-0.2,0-0.3-0.2-0.4c-1.3-0.8-1.4-1.8-1.3-2.2c0.9,0.2,1.7,0.1,1.8,0.1c0.4,0,0.6-0.1,0.7-0.3c0.1-0.2,0.1-0.5,0.1-0.8
				c0,0,0-0.1,0-0.1c0-0.2,0.1-0.3,0.1-0.3c0.1-0.1,0.2-0.3,0.1-0.4c0,0,0-0.1,0-0.1l0.1,0c0.2-0.1,0.3-0.3,0.2-0.5l-0.1-0.2
				c0,0,0.1,0,0.2-0.1c0,0,0.1,0,0.1,0c0.2,0,0.3-0.1,0.3-0.1C18.7,20.2,18.8,19.9,18.7,19.7L18.7,19.7z"/>
		</g>
	</g>
</g>
</svg>
