<?xml version="1.0" encoding="utf-8"?>
<!-- Generator: Adobe Illustrator 21.0.2, SVG Export Plug-In . SVG Version: 6.00 Build 0)  -->
<svg version="1.1" id="图层_1" xmlns="http://www.w3.org/2000/svg" xmlns:xlink="http://www.w3.org/1999/xlink" x="0px" y="0px"
	 viewBox="0 0 71 38" style="enable-background:new 0 0 71 38;" xml:space="preserve">
<style type="text/css">
	.st0{fill:#FCFCFC;}
	.st1{fill:#D0D0D0;}
	.st2{fill:#FFFFFF;}
</style>
<g>
	<path class="st0" d="M16.5,28.5C10.2,28.5,5,23.3,5,17S10.2,5.5,16.5,5.5h26C48.8,5.5,54,10.7,54,17s-5.2,11.5-11.5,11.5H16.5z"/>
	<path class="st1" d="M42.5,6c6.1,0,11,4.9,11,11s-4.9,11-11,11h-26c-6.1,0-11-4.9-11-11s4.9-11,11-11H42.5 M42.5,5h-26
		c-6.6,0-12,5.4-12,12s5.4,12,12,12h26c6.6,0,12-5.4,12-12S49.1,5,42.5,5L42.5,5z"/>
</g>
<g>
	
		<image style="overflow:visible;opacity:0.27;" width="34" height="34" xlink:href="3DBE57D8FD7AAEAA.png"  transform="matrix(1 0 0 1 0 2)">
	</image>
	<g>
		<circle class="st2" cx="17" cy="17" r="11"/>
	</g>
</g>
</svg>
