<?xml version="1.0" encoding="utf-8"?>
<!-- Generator: Adobe Illustrator 21.0.2, SVG Export Plug-In . SVG Version: 6.00 Build 0)  -->
<svg version="1.1" id="图层_1" xmlns="http://www.w3.org/2000/svg" xmlns:xlink="http://www.w3.org/1999/xlink" x="0px" y="0px"
	 viewBox="0 0 35 35" style="enable-background:new 0 0 35 35;" xml:space="preserve">
<style type="text/css">
	.st0{opacity:0.8;}
	.st1{fill:#7C7C7C;}
	.st2{fill:#FFFFFF;}
</style>
<g class="st0">
	
		<image style="overflow:visible;opacity:0.4;" width="35" height="40" xlink:href="80EF8D5B7121C46D.png"  transform="matrix(1 0 0 1 0 1)">
	</image>
	<g>
		<g>
			<g>
				<path class="st1" d="M23.9,17.8c0.2,6-4.2,11.1-9.9,11.8c-0.5,0.1-1.5,2-1.5,2s-1.3-1.9-1.9-2.1C5.1,28.7,1,24,1,18.3
					C1,11.8,6.4,6.6,12.9,6.8C18.8,7.1,23.7,11.9,23.9,17.8z"/>
			</g>
			<path class="st2" d="M13.1,17.9c0.1-0.3,0.1-0.6-0.1-0.9c-0.1-0.2-0.4-0.2-0.6-0.2c-0.3,0.1-0.7,0-1-0.1c-0.5-0.1-1-0.4-1.4-0.7
				c-0.3-0.2-0.5-0.5-0.7-0.8c-0.3-0.5-0.5-1.1-0.5-1.7c0-0.3,0.1-0.5,0-0.8l-0.1,0c-0.1,0.1-0.2,0.2-0.2,0.3
				C8.2,13.7,8,14.3,7.9,15c-0.1,0.4-0.2,0.8-0.3,1.2c-0.1,0.3-0.2,0.6-0.4,0.9c-0.2,0.3-0.5,0.6-0.7,0.9c0,0.1-0.1,0.2-0.1,0.3
				c0.1,0.2,0.2,0.2,0.4,0.3c0.2,0.1,0.4,0.2,0.4,0.4c0,0.2,0,0.4,0,0.6c0,0.2,0.2,0.3,0.2,0.5c0,0.1-0.1,0.3,0,0.5
				c0.1,0.2,0.2,0.3,0.2,0.5c0.1,0.3,0,0.7,0.1,1c0.1,0.2,0.2,0.3,0.4,0.4c0.3,0.1,0.5,0,0.8,0c0.5-0.2,1-0.4,1.5-0.6
				c0.2-0.1,0.3-0.1,0.5-0.1c0.3,0.1,0.5,0.3,0.5,0.6c0.1,0.4,0,0.7,0,1.1c0,0.2-0.1,0.5-0.2,0.7c-0.1,0.3-0.2,0.6-0.4,0.9
				c-0.1,0.1-0.1,0.2-0.2,0.4c-0.1,0-0.3-0.1-0.4-0.1c0.2-0.3,0.4-0.6,0.5-1c0.2-0.5,0.3-0.9,0.3-1.4c0-0.2,0-0.4,0-0.6
				c0-0.1-0.1-0.2-0.3-0.2c-0.1,0-0.3,0-0.4,0.1c-0.5,0.2-1.1,0.5-1.6,0.6c-0.5,0.1-1.1-0.1-1.3-0.5c-0.2-0.4-0.1-0.8-0.2-1.2
				c-0.1-0.2-0.2-0.3-0.3-0.5c-0.1-0.2,0-0.4-0.1-0.6C7,19.7,7,19.6,7,19.5c0-0.2,0-0.4-0.1-0.5c-0.2-0.2-0.5-0.2-0.7-0.4
				c-0.1-0.1-0.1-0.4,0-0.5c0.3-0.4,0.6-0.8,0.9-1.2c0.2-0.3,0.3-0.6,0.3-0.9c0.1-0.3,0.1-0.6,0.2-1c0.1-0.6,0.2-1.1,0.4-1.6
				c0.1-0.2,0.3-0.4,0.4-0.7c0.1-0.2,0.1-0.4,0.3-0.5c0.4-0.5,0.9-0.8,1.5-1c1.2-0.5,2.5-0.5,3.7-0.2c0.2,0,0.3,0.1,0.5,0.2
				c0.1,0,0.2-0.1,0.4-0.2c0.4-0.3,0.9-0.5,1.4-0.4c0.7,0.1,1.5,0.4,2,1c0.4,0.4,0.6,1,0.5,1.5c0,0.4-0.1,0.8-0.4,1
				c-0.2,0.1-0.4,0.2-0.6,0.2c-0.1,0-0.1-0.1-0.1-0.2c0.1-0.1,0.3-0.2,0.4-0.3c0.2-0.2,0.3-0.5,0.3-0.7c0-0.4-0.1-0.9-0.4-1.2
				c-0.5-0.6-1.2-1-2-1c-0.3,0-0.6,0.1-0.9,0.2c-0.1,0.1-0.2,0.2-0.2,0.3c0,0.1,0.1,0.2,0.2,0.3c0.5,0.5,0.9,1.2,1,1.9
				c0,0.3,0,0.6-0.1,0.9c0,0.1-0.1,0.2-0.2,0.2c-0.1,0-0.2-0.1-0.2-0.2c0-0.2,0.1-0.4,0.1-0.6c0-0.3-0.1-0.7-0.2-1
				c-0.2-0.4-0.5-0.8-0.9-1.1c-0.5-0.4-1.2-0.6-1.8-0.6c-0.9-0.1-1.8,0-2.6,0.3c-0.3,0.1-0.6,0.2-0.8,0.4C9.3,11.9,9.1,12,9,12.3
				c0,0.1,0.1,0.1,0.1,0.1c0.1,0,0.1,0.2,0.1,0.3c-0.1,0.6-0.1,1.2,0.1,1.8c0.1,0.3,0.2,0.6,0.5,0.9c0.6,0.7,1.6,1.2,2.6,1.1
				c0.3-0.1,0.6,0,0.8,0.2c0.3,0.3,0.3,0.7,0.3,1.1c-0.1,0.3-0.2,0.6-0.4,0.9c-0.1,0.1-0.2,0.3-0.2,0.5c0,0.3,0.2,0.5,0.3,0.7
				c0.1,0.3,0.4,0.5,0.7,0.7c0.4,0.2,0.8,0.3,1.2,0.4c0.2,0.1,0.5,0.1,0.7,0.2c0.1,0.1,0.1,0.3,0,0.4c-0.1,0.1-0.3,0.2-0.4,0.4
				c-0.2,0.2-0.3,0.5-0.2,0.8c0,0.8,0.4,1.5,0.8,2.1c-0.1,0-0.2,0.1-0.3,0.1c-0.2-0.2-0.3-0.5-0.5-0.8c-0.2-0.5-0.4-1-0.4-1.6
				c0-0.3,0.1-0.5,0.2-0.8c0.1-0.1,0.2-0.3,0.2-0.4c-0.1-0.1-0.1-0.1-0.2-0.1c-0.6-0.2-1.2-0.4-1.7-0.8c-0.2-0.2-0.4-0.5-0.5-0.8
				c-0.1-0.1-0.1-0.3-0.2-0.4c-0.1-0.1-0.2-0.1-0.3-0.3c0,0,0-0.1,0-0.2"/>
			<path class="st2" d="M16.9,14.3c-0.1-0.1,0-0.2,0.2-0.2c0.2,0,0.3,0.1,0.4,0.2c0.2,0.2,0.5,0.4,0.7,0.7c0.2,0.3,0.4,0.7,0.5,1.1
				c0.2,1,0.2,2-0.1,3c-0.2,0.7-0.6,1.3-1.1,1.8c-0.3,0.3-0.7,0.6-1,0.8c-0.2,0.1-0.3,0.3-0.4,0.4c-0.1,0.1-0.1,0.3-0.2,0.5
				c-0.1,0.1-0.2,0-0.3-0.1c-0.1-0.2,0.1-0.4,0.2-0.6c0.1-0.1,0.2-0.3,0.4-0.4c0.2-0.2,0.5-0.4,0.7-0.5c0.6-0.5,1.1-1.1,1.4-1.9
				c0.1-0.4,0.2-0.8,0.3-1.2c0.1-0.5,0-1-0.1-1.6c-0.1-0.4-0.2-0.8-0.4-1.1c-0.2-0.3-0.5-0.5-0.8-0.7C17.1,14.5,17,14.5,16.9,14.3z"
				/>
			<g>
				<circle class="st1" cx="12.3" cy="33.3" r="0.7"/>
			</g>
		</g>
	</g>
</g>
</svg>
