<?xml version="1.0" encoding="utf-8"?>
<!-- Generator: Adobe Illustrator 21.0.2, SVG Export Plug-In . SVG Version: 6.00 Build 0)  -->
<svg version="1.1" id="图层_1" xmlns="http://www.w3.org/2000/svg" xmlns:xlink="http://www.w3.org/1999/xlink" x="0px" y="0px"
	 viewBox="0 0 35 35" style="enable-background:new 0 0 35 35;" xml:space="preserve">
<style type="text/css">
	.st0{opacity:0.8;}
	.st1{fill:#E64164;}
	.st2{fill:#FFFFFF;}
</style>
<g class="st0">
	
		<image style="overflow:visible;opacity:0.4;" width="40" height="45" xlink:href="CE41F9B8A00E3334.png"  transform="matrix(1 0 0 1 -1 -2)">
	</image>
	<g>
		<g>
			<g>
				<path class="st1" d="M28,15.9c0.3,7.1-4.9,13.1-11.7,14c-0.6,0.1-1.8,2.3-1.8,2.3S13,30,12.2,29.8C5.8,28.7,1,23.2,1,16.5
					C1,8.9,7.3,2.7,15,3C22,3.3,27.7,9,28,15.9z"/>
			</g>
			<path class="st2" d="M15.3,16.1c0.1-0.3,0.1-0.7-0.1-1c-0.2-0.2-0.4-0.3-0.7-0.2c-0.4,0.1-0.8,0-1.2-0.1
				c-0.6-0.2-1.2-0.4-1.6-0.8c-0.3-0.3-0.6-0.6-0.8-0.9c-0.4-0.6-0.5-1.3-0.6-2c0-0.3,0.1-0.6,0-0.9l-0.1,0
				c-0.1,0.1-0.2,0.3-0.3,0.4c-0.4,0.7-0.6,1.4-0.7,2.2c-0.1,0.5-0.2,1-0.3,1.4c-0.1,0.4-0.2,0.7-0.4,1.1c-0.2,0.4-0.5,0.7-0.8,1.1
				c-0.1,0.1-0.1,0.2-0.1,0.3c0.1,0.2,0.3,0.2,0.4,0.3c0.2,0.1,0.4,0.3,0.5,0.5c0,0.2,0,0.4,0,0.7c0,0.2,0.2,0.4,0.2,0.6
				c0,0.2-0.1,0.4,0,0.5c0.1,0.2,0.2,0.4,0.3,0.6C9,20,9,20.4,9.1,20.8c0.1,0.2,0.3,0.4,0.5,0.4c0.3,0.1,0.6,0.1,0.9,0
				c0.6-0.2,1.2-0.5,1.7-0.7c0.2-0.1,0.4-0.1,0.6-0.1c0.3,0.1,0.6,0.4,0.6,0.7c0.1,0.4,0,0.9,0,1.3c0,0.3-0.1,0.5-0.2,0.8
				c-0.1,0.4-0.3,0.7-0.5,1.1c-0.1,0.1-0.2,0.3-0.2,0.4c-0.2,0-0.3-0.1-0.4-0.1c0.3-0.3,0.4-0.7,0.6-1.1c0.2-0.5,0.4-1.1,0.4-1.7
				c0-0.2,0-0.5,0-0.7c0-0.1-0.2-0.3-0.3-0.3c-0.2,0-0.3,0-0.5,0.1c-0.6,0.3-1.3,0.6-1.9,0.7c-0.6,0.1-1.3-0.1-1.5-0.6
				c-0.2-0.4-0.1-0.9-0.2-1.4c-0.1-0.2-0.2-0.4-0.3-0.6c-0.1-0.2,0-0.5-0.1-0.7c0-0.2-0.1-0.3-0.1-0.5c0-0.2,0-0.5-0.1-0.6
				c-0.2-0.2-0.6-0.2-0.8-0.4c-0.2-0.2-0.2-0.4,0-0.6c0.3-0.5,0.7-1,1-1.5c0.2-0.3,0.3-0.7,0.4-1.1c0.1-0.4,0.2-0.8,0.2-1.1
				c0.1-0.7,0.2-1.3,0.5-1.9c0.1-0.3,0.3-0.5,0.4-0.8c0.1-0.2,0.2-0.4,0.3-0.6c0.4-0.6,1.1-1,1.8-1.2c1.4-0.6,3-0.6,4.4-0.2
				c0.2,0,0.4,0.1,0.5,0.2c0.1,0,0.3-0.1,0.4-0.2c0.4-0.4,1.1-0.6,1.6-0.5c0.9,0.1,1.7,0.5,2.3,1.2c0.4,0.5,0.7,1.1,0.6,1.8
				c0,0.4-0.1,0.9-0.5,1.2c-0.2,0.2-0.4,0.3-0.7,0.3c-0.1,0-0.2-0.2-0.1-0.2c0.1-0.2,0.3-0.2,0.5-0.3c0.3-0.2,0.3-0.6,0.4-0.9
				c0-0.5-0.1-1-0.4-1.4c-0.5-0.7-1.4-1.1-2.3-1.2c-0.4,0-0.7,0.1-1,0.3c-0.1,0.1-0.2,0.2-0.2,0.3c0,0.1,0.2,0.2,0.3,0.3
				c0.6,0.6,1.1,1.4,1.2,2.2c0,0.4,0,0.7-0.1,1c0,0.1-0.1,0.2-0.2,0.2c-0.1,0-0.2-0.1-0.2-0.3c0-0.2,0.1-0.5,0.1-0.7
				c0-0.4-0.1-0.8-0.3-1.2c-0.3-0.5-0.6-0.9-1.1-1.2C16.5,8.2,15.8,8,15,7.9c-1-0.1-2.1,0-3,0.4c-0.3,0.1-0.7,0.3-1,0.5
				c-0.2,0.1-0.5,0.3-0.6,0.5c0,0.1,0.1,0.1,0.2,0.2c0.1,0.1,0.1,0.2,0.1,0.3c-0.2,0.7-0.1,1.5,0.1,2.2c0.1,0.4,0.3,0.8,0.6,1.1
				c0.7,0.9,1.9,1.5,3.1,1.3c0.4-0.1,0.7,0,1,0.3c0.3,0.4,0.4,0.9,0.3,1.3c-0.1,0.4-0.2,0.7-0.5,1.1c-0.1,0.2-0.2,0.4-0.2,0.5
				c0,0.3,0.2,0.6,0.3,0.8c0.2,0.3,0.4,0.6,0.8,0.8c0.5,0.2,1,0.4,1.4,0.5c0.3,0.1,0.5,0.1,0.8,0.2c0.2,0.1,0.2,0.3,0,0.4
				c-0.2,0.2-0.4,0.3-0.5,0.5c-0.2,0.3-0.3,0.6-0.3,1c0,0.9,0.4,1.8,1,2.5c-0.1,0.1-0.3,0.1-0.4,0.2c-0.2-0.3-0.4-0.6-0.6-0.9
				c-0.3-0.6-0.4-1.2-0.4-1.9c0-0.3,0.1-0.6,0.3-0.9c0.1-0.2,0.2-0.3,0.2-0.5c-0.1-0.1-0.1-0.1-0.3-0.2c-0.7-0.2-1.4-0.4-2-0.9
				c-0.3-0.3-0.5-0.6-0.6-0.9c-0.1-0.2-0.1-0.3-0.2-0.5c-0.1-0.1-0.3-0.2-0.4-0.3c0-0.1,0-0.1,0-0.2"/>
			<path class="st2" d="M19.7,11.9c-0.1-0.1,0.1-0.3,0.2-0.2c0.2,0,0.4,0.1,0.5,0.3c0.3,0.3,0.6,0.5,0.8,0.8
				c0.3,0.4,0.5,0.8,0.6,1.3c0.3,1.2,0.2,2.4-0.2,3.5c-0.3,0.8-0.7,1.5-1.3,2.1c-0.4,0.4-0.8,0.7-1.2,1c-0.2,0.2-0.4,0.3-0.5,0.5
				c-0.1,0.2-0.1,0.4-0.2,0.5c-0.1,0.1-0.3,0-0.3-0.1c-0.1-0.3,0.1-0.5,0.2-0.7c0.1-0.2,0.3-0.3,0.4-0.4c0.3-0.2,0.5-0.4,0.8-0.6
				c0.7-0.6,1.3-1.4,1.6-2.2c0.2-0.4,0.3-0.9,0.3-1.4c0.1-0.6,0-1.2-0.1-1.8c-0.1-0.5-0.2-0.9-0.5-1.3c-0.2-0.3-0.5-0.6-0.9-0.9
				C20,12.1,19.8,12,19.7,11.9z"/>
			<circle class="st1" cx="14.4" cy="34.2" r="0.8"/>
		</g>
	</g>
</g>
</svg>
