<?xml version="1.0" encoding="utf-8"?>
<!-- Generator: Adobe Illustrator 21.0.2, SVG Export Plug-In . SVG Version: 6.00 Build 0)  -->
<svg version="1.1" id="图层_1" xmlns="http://www.w3.org/2000/svg" xmlns:xlink="http://www.w3.org/1999/xlink" x="0px" y="0px"
	 viewBox="0 0 32 32" style="enable-background:new 0 0 32 32;" xml:space="preserve">
<style type="text/css">
	.st0{fill:#666666;}
</style>
<path class="st0" d="M15.9,21.6c3.1,0,5.6-2.5,5.6-5.6c0-3.1-2.5-5.6-5.6-5.6c-3.1,0-5.6,2.5-5.6,5.6C10.3,19.1,12.8,21.6,15.9,21.6
	z M15.9,12.1c2.2,0,4,1.8,4,3.9c0,2.2-1.8,3.9-4,3.9c-2.2,0-4-1.8-4-3.9C11.9,13.8,13.7,12.1,15.9,12.1z M8.3,23.5
	c0.4,0.4,1,0.4,1.4,0l1.4-1.4c0.4-0.4,0.4-1,0-1.4l0,0c-0.4-0.4-1-0.4-1.4,0l-1.4,1.4C7.9,22.5,7.9,23.1,8.3,23.5L8.3,23.5z
	 M29.5,15.2h2.2c-0.5-7.9-7.1-14.4-15-14.9v2.3C23.4,3.1,29,8.6,29.5,15.2z M5.1,15.9L5.1,15.9c0,0.6,0.4,1.1,1,1.1h2
	c0.5,0,1-0.5,1-1v-0.1c0-0.5-0.4-1.1-1-1.1h-2C5.6,14.8,5.1,15.4,5.1,15.9z M9.6,11.1c0.4,0.4,1,0.4,1.4,0l0,0c0.4-0.4,0.4-1,0-1.4
	L9.7,8.3C9.3,8,8.7,8,8.3,8.3l0,0c-0.4,0.4-0.4,1,0,1.4L9.6,11.1z M22.2,11.1l1.4-1.4c0.4-0.4,0.4-1,0-1.4l0,0c-0.4-0.4-1-0.4-1.4,0
	l-1.4,1.4c-0.4,0.4-0.4,1,0,1.4l0,0C21.2,11.5,21.8,11.5,22.2,11.1z M2.3,16.7H0.1c0.5,7.9,7.1,14.5,15,14.9v-2.3
	C8.4,28.9,2.8,23.4,2.3,16.7z M17,25.7v-1.9c0-0.5-0.5-1-1-1h-0.1c-0.5,0-1.1,0.4-1.1,1v1.9c0,0.5,0.5,1,1.1,1H16
	C16.5,26.7,17,26.2,17,25.7z M15.1,2.6V0.3c-7.9,0.5-14.5,7-15,14.9h2.2C2.8,8.6,8.4,3.1,15.1,2.6z M22.1,23.5c0.4,0.4,1,0.4,1.4,0
	l0,0c0.4-0.4,0.4-1,0-1.4l-1.4-1.4c-0.4-0.4-1-0.4-1.4,0l0,0c-0.4,0.4-0.4,1,0,1.4L22.1,23.5z M14.8,6.1V8c0,0.5,0.5,1.1,1,1.1H16
	c0.5,0,1-0.4,1-1V6.2c0-0.5-0.5-1-1-1h-0.1C15.4,5.2,14.8,5.6,14.8,6.1z M26.7,16L26.7,16c0-0.6-0.4-1.2-1-1.2h-2
	c-0.5,0-1,0.6-1,1.1V16c0,0.5,0.4,1,1,1h2C26.3,17,26.7,16.5,26.7,16z M16.7,29.4v2.3c7.9-0.5,14.5-7.1,15-14.9h-2.2
	C29,23.4,23.4,28.9,16.7,29.4z"/>
</svg>
