<?xml version="1.0" encoding="utf-8"?>
<!-- Generator: Adobe Illustrator 21.0.2, SVG Export Plug-In . SVG Version: 6.00 Build 0)  -->
<svg version="1.1" id="图层_1" xmlns="http://www.w3.org/2000/svg" xmlns:xlink="http://www.w3.org/1999/xlink" x="0px" y="0px"
	 viewBox="0 0 32 32" style="enable-background:new 0 0 32 32;" xml:space="preserve">
<style type="text/css">
	.st0{fill:#666666;}
</style>
<path class="st0" d="M28.5,11.8c-0.3-0.1-0.5,0-0.7,0.1c-0.2,0.2-0.3,0.5-0.2,0.8c0.9,3.7,0.4,7.2-1.8,10.4
	c-2.6,3.7-6.2,5.5-10.7,5.4c-3.2-0.1-5.9-1.4-8.1-3.7c-2.8-2.9-4-6.5-3.5-10.5c0.6-4.5,3-7.7,7-9.7c2.7-1.3,5.6-1.5,8.5-0.7
	c0.1,0,0.3,0.1,0.5,0C19.8,3.9,20,3.6,20,3.2c0-0.3-0.2-0.6-0.6-0.7c-2.2-0.6-4.3-0.7-6.5-0.2C6.9,3.5,2.3,9,2,15.3
	C1.9,19.5,3.2,23.1,6.2,26c3.3,3.2,7.4,4.5,11.9,3.7c6.5-1.1,11.3-7,11.3-13.7c0-1.2-0.2-2.4-0.4-3.6C28.9,12.1,28.8,11.9,28.5,11.8
	z M29.7,6.5c-1.6-1.6-3.2-3.3-4.8-4.9c-0.3-0.3-0.7-0.3-1.1,0c-0.8,0.9-1.7,1.7-2.5,2.6c-0.1,0.1-0.2,0.4-0.2,0.6c0,0.7,0,1.5,0,2.2
	h0c0,0.7,0,1.4,0,2.1c0,0.2,0,0.4-0.2,0.5c-1.6,1.6-3.2,3.2-4.8,4.9c-0.3,0.3-0.6,0.6-0.9,0.9c-0.2,0.3-0.3,0.6-0.1,0.9
	c0.2,0.3,0.5,0.4,0.8,0.3c0.1-0.1,0.3-0.2,0.4-0.3c1.9-1.9,3.7-3.8,5.6-5.6c0.1-0.1,0.3-0.2,0.4-0.2c1.4,0,2.9,0,4.3,0
	c0.2,0,0.5-0.1,0.6-0.3c0.9-0.8,1.7-1.7,2.5-2.6C30.1,7.3,30.1,6.9,29.7,6.5z M26.5,9c-0.1,0.1-0.1,0.1-0.2,0.1c-1.2,0-2.5,0-3.7,0
	c0,0,0,0-0.1,0c0-0.1,0-0.2,0-0.2c0-1.2,0-2.3,0-3.5c0-0.1,0.1-0.3,0.2-0.4c0.6-0.6,1.1-1.2,1.7-1.8c1.3,1.3,2.6,2.7,3.9,4
	C27.7,7.7,27.1,8.3,26.5,9z M15.6,10.3c0.5,0,0.8-0.3,0.8-0.7c0-0.4-0.3-0.7-0.8-0.7c-3.7,0-6.8,3.2-6.8,7c0,0.4,0,0.7,0.1,1.1
	c0.5,2.7,1.9,4.6,4.4,5.5c2.5,1,4.9,0.5,6.9-1.3c1.5-1.4,2.3-3.1,2.3-5.2c0-0.4-0.3-0.7-0.7-0.8c-0.4,0-0.7,0.3-0.7,0.7
	c0,0.2,0,0.3,0,0.5c-0.3,3.3-3.4,5.6-6.6,5c-2.7-0.5-4.7-3.3-4.4-6.1C10.6,12.5,12.8,10.4,15.6,10.3z"/>
</svg>
