<?xml version="1.0" encoding="utf-8"?>
<!-- Generator: Adobe Illustrator 21.0.2, SVG Export Plug-In . SVG Version: 6.00 Build 0)  -->
<svg version="1.1" id="图层_1" xmlns="http://www.w3.org/2000/svg" xmlns:xlink="http://www.w3.org/1999/xlink" x="0px" y="0px"
	 viewBox="0 0 32 32" style="enable-background:new 0 0 32 32;" xml:space="preserve">
<style type="text/css">
	.st0{fill:#666666;}
</style>
<path class="st0" d="M29.9,20.8L15.1,12c-0.5-0.3-0.9-0.1-0.8,0.5l3.2,17.1c0.1,0.6,0.5,0.7,0.9,0.2c0,0,2-2.9,3.7-4.7l3.2,4.7
	c0.3,0.5,0.9,0.6,1.4,0.3l1.1-0.7c0.4-0.3,0.6-0.9,0.3-1.4l-3.2-4.7c2.1-0.9,5.1-1.6,5.1-1.6C30.4,21.5,30.5,21.2,29.9,20.8z
	 M12.6,26.4c-0.1,0-0.1,0-0.2,0C7.3,25.2,3.6,20.5,3.6,15C3.7,8.7,8.9,3.6,15.1,3.7C21,3.7,25.9,8.4,26.3,14.3v0c0,0.1,0,0.1,0,0.2
	c0.1,0.4,0.3,0.7,0.7,0.8c0.1,0,0.1,0,0.2,0c0,0,0,0,0,0c0,0,0,0,0.1,0c0,0,0.1,0,0.1,0c0.5,0,0.9-0.5,0.9-1c0,0,0,0,0,0
	c0,0,0-0.1,0-0.1c-0.1-1.4-0.4-2.8-1-4.1c-0.7-1.6-1.6-3.1-2.8-4.3c-1.2-1.3-2.6-2.2-4.2-2.9c-1.6-0.7-3.4-1.1-5.2-1.1
	c-1.8,0-3.5,0.3-5.2,1c-1.6,0.7-3,1.6-4.3,2.8C4.5,6.7,3.5,8.2,2.8,9.8c-0.7,1.7-1.1,3.4-1.1,5.2c0,3.3,1.1,6.5,3.3,9
	c1.9,2.2,4.3,3.7,7.1,4.3c0.1,0,0.1,0,0.2,0c0,0,0.1,0,0.1,0c0.5,0,1-0.4,1-1C13.3,26.9,13,26.6,12.6,26.4z"/>
</svg>
