<?xml version="1.0" encoding="utf-8"?>
<!-- Generator: Adobe Illustrator 21.0.2, SVG Export Plug-In . SVG Version: 6.00 Build 0)  -->
<svg version="1.1" id="图层_1" xmlns="http://www.w3.org/2000/svg" xmlns:xlink="http://www.w3.org/1999/xlink" x="0px" y="0px"
	 viewBox="0 0 32 32" style="enable-background:new 0 0 32 32;" xml:space="preserve">
<style type="text/css">
	.st0{fill:#F9BA0F;}
</style>
<path class="st0" d="M7.6,4.7c4.8-4.8,12.6-4.8,17.4,0c4.8,4.8,3.7,12.6-1.1,17.5l-7.6,8.7l-7.6-8.7C3.9,17.3,2.8,9.5,7.6,4.7
	L7.6,4.7z M16.3,27.7l6-7.1c3.9-3.9,5.1-10.3,1.1-14.3c-3.9-3.9-10.3-3.9-14.3,0c-3.9,3.9-2.8,10.3,1.1,14.3L16.3,27.7z"/>
<path class="st0" d="M16.3,6.7c-3.1,0-5.6,2.5-5.6,5.6c0,3.1,2.5,5.6,5.6,5.6c3.1,0,5.6-2.5,5.6-5.6C21.9,9.2,19.4,6.7,16.3,6.7z
	 M16.3,15.7c-1.9,0-3.4-1.5-3.4-3.4s1.5-3.4,3.4-3.4s3.4,1.5,3.4,3.4S18.2,15.7,16.3,15.7z"/>
</svg>
