<?xml version="1.0" encoding="utf-8"?>
<!-- Generator: Adobe Illustrator 21.0.2, SVG Export Plug-In . SVG Version: 6.00 Build 0)  -->
<svg version="1.1" id="图层_1" xmlns="http://www.w3.org/2000/svg" xmlns:xlink="http://www.w3.org/1999/xlink" x="0px" y="0px"
	 viewBox="0 0 32 32" style="enable-background:new 0 0 32 32;" xml:space="preserve">
<style type="text/css">
	.st0{fill:#E64164;}
</style>
<path class="st0" d="M16.1,28.4c-0.2,0-0.5-0.1-0.7-0.3C15.4,28,7.6,20.3,5,17.7c-2-2.1-3-4.2-2.9-6.3c0.1-2.7,1.8-4.4,2-4.7
	c1.9-1.9,4-2.9,6.4-2.9c2.4,0,4.4,1,5.4,1.7c1.4-1.2,3-1.8,4.8-1.8c3.4,0,6.1,2.2,6.2,2.3c1.7,1.4,2.6,3,2.8,4.9
	c0.1,1.3-0.2,2.7-0.9,4.1c-0.7,1.4-1.5,2.4-1.9,2.9c-2.4,2.7-9.8,10-10.2,10.3C16.6,28.3,16.4,28.4,16.1,28.4z M5.4,8.1
	C5.4,8.1,4,9.4,4,11.4c0,1.6,0.8,3.3,2.4,4.9c2.1,2.2,7.8,7.8,9.7,9.7c1.9-1.9,7.4-7.4,9.4-9.6c1.2-1.3,2.5-3.5,2.3-5.5
	c-0.1-1.3-0.8-2.5-2.1-3.5c0,0,0,0,0,0c0,0-2.3-1.9-5-1.9c-1.5,0-2.9,0.6-4.1,1.8c-0.3,0.4-0.9,0.4-1.3,0.1c0,0-2.2-1.7-4.9-1.7
	C8.7,5.7,7,6.5,5.4,8.1C5.5,8.1,5.5,8.1,5.4,8.1z"/>
<path class="st0" d="M25,9.8"/>
</svg>
