<?xml version="1.0" encoding="utf-8"?>
<!-- Generator: Adobe Illustrator 21.0.2, SVG Export Plug-In . SVG Version: 6.00 Build 0)  -->
<svg version="1.1" id="图层_1" xmlns="http://www.w3.org/2000/svg" xmlns:xlink="http://www.w3.org/1999/xlink" x="0px" y="0px"
	 viewBox="0 0 32 32" style="enable-background:new 0 0 32 32;" xml:space="preserve">
<style type="text/css">
	.st0{fill:#2C7EE2;}
</style>
<path class="st0" d="M29.1,8.2C26.3,3.6,21.4,0.8,16,0.8C7.6,0.8,0.8,7.6,0.8,16S7.6,31.1,16,31.1S31.2,24.3,31.2,16
	c0-0.5-0.4-1-1-1c-0.5,0-1,0.4-1,1c0,7.3-6,13.3-13.3,13.3S2.7,23.3,2.7,16S8.6,2.7,16,2.7c4.8,0,9.1,2.5,11.5,6.6
	c0.3,0.5,0.9,0.6,1.3,0.3C29.2,9.3,29.3,8.7,29.1,8.2z"/>
<path class="st0" d="M15,14.5v10.9c0,0.5,0.4,1,1,1c0.5,0,1-0.4,1-1V14.5c0-0.5-0.4-1-1-1C15.4,13.6,15,14,15,14.5z"/>
<path class="st0" d="M11.1,17.9h10c0.5,0,1-0.4,1-1c0-0.5-0.4-1-1-1h-10c-0.5,0-1,0.4-1,1C10.1,17.4,10.6,17.9,11.1,17.9z
	 M11.1,21.7h10c0.5,0,1-0.4,1-1c0-0.5-0.4-1-1-1h-10c-0.5,0-1,0.4-1,1C10.1,21.2,10.6,21.7,11.1,21.7z M20.5,8.3l-4.1,4.1
	c-0.3,0.3-0.7,0.3-1,0l-4.1-4.1c-0.4-0.4-1-0.4-1.3,0s-0.4,1,0,1.3l4.1,4.1c1,1,2.6,1,3.7,0l4.1-4.1c0.4-0.4,0.4-1,0-1.3
	C21.5,7.9,20.9,7.9,20.5,8.3z"/>
</svg>
