<?xml version="1.0" encoding="utf-8"?>
<!-- Generator: Adobe Illustrator 21.0.2, SVG Export Plug-In . SVG Version: 6.00 Build 0)  -->
<svg version="1.1" id="图层_1" xmlns="http://www.w3.org/2000/svg" xmlns:xlink="http://www.w3.org/1999/xlink" x="0px" y="0px"
	 viewBox="0 0 32 32" style="enable-background:new 0 0 32 32;" xml:space="preserve">
<style type="text/css">
	.st0{fill:#F98D0F;}
</style>
<path class="st0" d="M16,32C7.2,32,0,24.8,0,16S7.2,0,16,0s16,7.2,16,16S24.8,32,16,32z M16,2.7C8.7,2.7,2.7,8.7,2.7,16
	s6,13.3,13.3,13.3s13.3-6,13.3-13.3S23.3,2.7,16,2.7z"/>
<path class="st0" d="M16,17.3c-0.8,0-1.3-0.5-1.3-1.3V6.7c0-0.8,0.5-1.3,1.3-1.3s1.3,0.5,1.3,1.3V16C17.3,16.8,16.8,17.3,16,17.3z"
	/>
<path class="st0" d="M21.3,22.7c-0.4,0-0.7-0.1-0.9-0.4l-5.3-5.3c-0.5-0.5-0.5-1.3,0-1.9s1.3-0.5,1.9,0l5.3,5.3
	c0.5,0.5,0.5,1.3,0,1.9C22,22.5,21.7,22.7,21.3,22.7z"/>
</svg>
