<?xml version="1.0" standalone="no"?><!DOCTYPE svg PUBLIC "-//W3C//DTD SVG 1.1//EN" "http://www.w3.org/Graphics/SVG/1.1/DTD/svg11.dtd"><svg t="1488010510482" class="icon" style="" viewBox="0 0 1024 1024" version="1.1" xmlns="http://www.w3.org/2000/svg" p-id="2855" xmlns:xlink="http://www.w3.org/1999/xlink" width="32" height="32"><defs><style type="text/css"></style></defs><path d="M814.440884 123.799572C647.450264-42.156056 377.621403-40.819845 210.616507 125.144348 43.62446 291.112824 42.443855 559.880997 209.421627 725.818066l301.748017 298.180506 302.32904-300.518875C980.516428 557.499801 981.422938 289.786606 814.440884 123.799572L814.440884 123.799572zM511.974796 785.980371c-201.983345 0-365.756211-162.730735-365.756211-363.487793 0-200.805596 163.772865-363.567738 365.756211-363.567738 202.046159 0 365.807603 162.762142 365.807603 363.567738C877.706738 623.249636 714.022382 785.980371 511.974796 785.980371L511.974796 785.980371z" p-id="2856"></path><path d="M262.506014 674.488169l254.453875 0 0-508.906323L262.506014 165.581846 262.506014 674.488169 262.506014 674.488169M421.537901 229.194601l63.614183 0 0 63.612755L421.537901 292.807356 421.537901 229.194601 421.537901 229.194601M421.537901 356.420111l63.614183 0 0 63.614183L421.537901 420.034293 421.537901 356.420111 421.537901 356.420111M421.537901 483.647048l63.614183 0 0 63.612755L421.537901 547.259803 421.537901 483.647048 421.537901 483.647048M294.312391 229.194601l63.612755 0 0 63.612755-63.612755 0L294.312391 229.194601 294.312391 229.194601M294.312391 356.420111l63.612755 0 0 63.614183-63.612755 0L294.312391 356.420111 294.312391 356.420111M294.312391 483.647048l63.612755 0 0 63.612755-63.612755 0L294.312391 483.647048 294.312391 483.647048M548.764839 324.613733l222.647498 0 0 31.806378L548.764839 356.420111 548.764839 324.613733 548.764839 324.613733M548.764839 674.488169l63.614183 0 0-127.226938 95.42056 0 0 127.226938 63.614183 0L771.413764 388.227916 548.764839 388.227916 548.764839 674.488169 548.764839 674.488169M548.764839 674.488169 548.764839 674.488169z" p-id="2857"></path></svg>