<?xml version="1.0" encoding="utf-8"?>
<!-- Generator: Adobe Illustrator 21.0.2, SVG Export Plug-In . SVG Version: 6.00 Build 0)  -->
<svg version="1.1" id="图层_1" xmlns="http://www.w3.org/2000/svg" xmlns:xlink="http://www.w3.org/1999/xlink" x="0px" y="0px"
	 viewBox="0 0 32 32" style="enable-background:new 0 0 32 32;" xml:space="preserve">
<style type="text/css">
	.st0{fill:#7ECE36;}
</style>
<path class="st0" d="M16,1c-2.7,0-5.2,0.7-7.4,1.9C4.1,5.5,1,10.4,1,16v0c0,8.3,6.7,15,15,15c8.3,0,15-6.7,15-15C31,7.7,24.3,1,16,1
	z M16,29.1C8.8,29.1,2.9,23.2,2.9,16C2.9,8.8,8.8,2.9,16,2.9c7.3,0,13.1,5.9,13.1,13.1C29.1,23.2,23.3,29.1,16,29.1z"/>
<path class="st0" d="M18.3,16.5c1.3-0.8,2.2-2.3,2.2-3.9c0-2.5-2.1-4.6-4.6-4.6s-4.6,2.1-4.6,4.6c0,1.7,0.9,3.1,2.2,3.9
	c-2.6,1-4.5,3.5-4.5,6.5c0,0.3,0.3,0.6,0.6,0.6s0.6-0.3,0.6-0.6c0-3.2,2.6-5.8,5.7-5.8c3.2,0,5.7,2.6,5.7,5.8c0,0.3,0.3,0.6,0.6,0.6
	c0.3,0,0.6-0.3,0.6-0.6C22.7,19.9,20.9,17.4,18.3,16.5z M12.4,12.5c0-1.9,1.5-3.5,3.4-3.5c1.9,0,3.4,1.5,3.4,3.5
	c0,1.9-1.5,3.5-3.4,3.5S12.4,14.5,12.4,12.5z"/>
</svg>
