<?xml version="1.0" encoding="utf-8"?>
<!-- Generator: Adobe Illustrator 21.0.2, SVG Export Plug-In . SVG Version: 6.00 Build 0)  -->
<svg version="1.1" xmlns="http://www.w3.org/2000/svg" xmlns:xlink="http://www.w3.org/1999/xlink" x="0px" y="0px"
	 viewBox="0 0 32 32" style="enable-background:new 0 0 32 32;" xml:space="preserve">
<style type="text/css">
	.st0{fill:url(#SVGID_1_);}
</style>
<g id="图层_2">
	<linearGradient id="SVGID_1_" gradientUnits="userSpaceOnUse" x1="16" y1="32" x2="16" y2="0">
		<stop  offset="0" style="stop-color:#FFFFFF"/>
		<stop  offset="1" style="stop-color:#B3B3B3"/>
	</linearGradient>
	<circle class="st0" cx="16" cy="16" r="16"/>
</g>
<g id="图层_1">
	<path d="M24.8,19c1.6,0,2.9-1.3,2.9-2.9c0-1.6-1.3-2.9-2.9-2.9h-0.5c-0.1-0.3-0.3-0.6-0.3-0.8l0.3-0.3c0.6-0.6,0.8-1.3,0.8-2.1
		c0-0.8-0.3-1.5-0.8-2.1c-0.6-0.6-1.3-0.8-2.1-0.8c-0.8,0-1.5,0.3-2.1,0.8L19.8,8c-0.3-0.2-0.6-0.3-0.8-0.3V7.2
		c0-1.6-1.3-2.9-2.9-2.9s-2.9,1.3-2.9,2.9v0.5c-0.3,0.1-0.6,0.3-0.8,0.3l-0.3-0.3c-0.6-0.6-1.3-0.8-2.1-0.8C9,6.8,8.3,7.2,7.7,7.7
		C7.1,8.3,6.8,8.9,6.8,9.8c0,0.8,0.3,1.5,0.8,2.1L8,12.2c-0.2,0.3-0.3,0.6-0.3,0.8H7.2c-1.6,0-2.9,1.3-2.9,2.9
		c0,1.6,1.3,2.9,2.9,2.9h0.5c0.1,0.3,0.3,0.6,0.3,0.8l-0.3,0.4c-0.6,0.6-0.8,1.3-0.8,2.1c0,0.8,0.3,1.5,0.8,2.1
		c0.6,0.6,1.3,0.8,2.1,0.8c0.8,0,1.5-0.3,2.1-0.8l0.3-0.3c0.3,0.2,0.6,0.3,0.8,0.3v0.5c0,1.6,1.3,2.9,2.9,2.9s2.9-1.3,2.9-2.9v-0.5
		c0.3-0.1,0.6-0.3,0.8-0.3l0.3,0.3c0.6,0.6,1.3,0.8,2.1,0.8c0.8,0,1.5-0.3,2.1-0.8c0.6-0.6,0.8-1.3,0.8-2.1c0-0.8-0.3-1.5-0.8-2.1
		L24,19.9c0.2-0.3,0.3-0.6,0.3-0.8L24.8,19L24.8,19z M23.3,21.2c0.3,0.3,0.4,0.7,0.4,1c0,0.4-0.2,0.8-0.4,1c-0.6,0.6-1.5,0.6-2.1,0
		l-1.1-1.1l-0.5,0.3c-0.5,0.3-1,0.5-1.6,0.7l-0.5,0.2v1.6c0,0.8-0.7,1.4-1.4,1.4s-1.4-0.7-1.4-1.4v-1.6l-0.5-0.2
		c-0.6-0.2-1.1-0.3-1.6-0.7L12,22.2l-1.1,1.1c-0.6,0.6-1.5,0.6-2.1,0c-0.3-0.3-0.4-0.7-0.4-1c0-0.4,0.2-0.8,0.4-1l1.1-1.1l-0.3-0.5
		c-0.3-0.5-0.5-1-0.7-1.6l-0.2-0.5H7.2c-0.8,0-1.4-0.7-1.4-1.4c0-0.8,0.7-1.4,1.4-1.4h1.6l0.2-0.5c0.2-0.7,0.3-1.3,0.7-1.7L9.9,12
		l-1.2-1.2c-0.3-0.3-0.4-0.6-0.4-1c0-0.4,0.2-0.8,0.4-1c0.6-0.6,1.5-0.6,2.1,0l1.1,1.1l0.5-0.3c0.5-0.3,1-0.5,1.6-0.7l0.5-0.2V7.2
		c0-0.8,0.7-1.4,1.4-1.4c0.8,0,1.4,0.7,1.4,1.4v1.6l0.5,0.2c0.6,0.2,1.1,0.3,1.6,0.7L20,9.9l1.1-1.1c0.6-0.6,1.5-0.6,2.1,0
		c0.3,0.3,0.4,0.7,0.4,1c0,0.4-0.2,0.8-0.4,1l-1.1,1.1l0.3,0.5c0.3,0.5,0.5,1,0.7,1.6l0.2,0.5h1.6c0.8,0,1.4,0.7,1.4,1.4
		c0,0.8-0.7,1.4-1.4,1.4h-1.6L23,17.9c-0.2,0.6-0.3,1.1-0.7,1.6L22.1,20L23.3,21.2z M16,11.6c-2.4,0-4.4,2-4.4,4.4
		c0,2.4,2,4.4,4.4,4.4s4.4-2,4.4-4.4C20.5,13.6,18.4,11.6,16,11.6z M16,19c-1.6,0-2.9-1.3-2.9-2.9c0-1.6,1.3-2.9,2.9-2.9
		s2.9,1.3,2.9,2.9C18.9,17.6,17.6,19,16,19z"/>
</g>
</svg>
