<?xml version="1.0" standalone="no"?><!DOCTYPE svg PUBLIC "-//W3C//DTD SVG 1.1//EN" "http://www.w3.org/Graphics/SVG/1.1/DTD/svg11.dtd"><svg t="1488008550513" class="icon" style="" viewBox="0 0 1024 1024" version="1.1" xmlns="http://www.w3.org/2000/svg" p-id="13829" xmlns:xlink="http://www.w3.org/1999/xlink" width="32" height="32"><defs><style type="text/css"></style></defs><path d="M848.2028 624.638c61.7667 0 111.9928-50.2538 111.9928-111.9928 0-61.7667-50.2262-111.9949-111.9928-111.9949h-19.414016c-3.9373-11.1831-8.448-22.1194-13.4779-32.7014l13.6704-13.698c21.0811-21.0801 32.7025-49.2165 32.7025-79.1828 0-29.995-11.6214-58.1028-32.7025-79.1839-21.0801-21.1098-49.2165-32.7035-79.1839-32.7035-29.9704 0-58.1048 11.5937-79.1818 32.7035l-13.6704 13.6714c-10.6107-5.033-21.5214-9.5437-32.7311-13.481v-19.412992c0-61.7656-50.2292-111.9939-111.9949-111.9939-61.7636 0-111.9928 50.2282-111.9928 111.9939v19.412992c-11.2118 3.9373-22.1225 8.448-32.7322 13.481l-13.6714-13.6714c-21.077-21.1098-49.2124-32.7035-79.1828-32.7035-29.9663 0-58.0987 11.5937-79.1839 32.7035-21.076 21.0801-32.7014 49.1889-32.7014 79.1839 0 29.9674 11.6255 58.1028 32.7014 79.1828l13.6714 13.6704c-5.0289 10.6097-9.5406 21.5194-13.4779 32.7291h-19.414016c-61.7636 0-111.9928 50.2282-111.9928 111.9949 0 61.739 50.2292 111.9928 111.9928 111.9928h19.414016c3.9373 11.2118 8.449 22.1215 13.4779 32.7291l-13.6714 13.6714c-21.076 21.0811-32.7014 49.1909-32.7014 79.1849 0 29.996 11.6255 58.1028 32.7014 79.1828 21.0852 21.078 49.2175 32.7035 79.1839 32.7035 29.9715 0 58.1059-11.6255 79.1828-32.7035l13.6714-13.6704c10.6097 5.0309 21.5204 9.5119 32.7322 13.4789v19.416064c0 61.7359 50.2292 111.9928 111.9928 111.9928 61.7656 0 111.9949-50.2569 111.9949-111.9928v-19.416064c11.2097-3.967 22.1204-8.448 32.7311-13.5045l13.6704 13.695c21.077 21.078 49.2124 32.7035 79.1818 32.7035 29.9674 0 58.1038-11.6255 79.1839-32.7035 21.0811-21.0801 32.7025-49.1868 32.7025-79.1828 0-29.994-11.6214-58.1038-32.7025-79.1849l-13.6704-13.698c5.0299-10.6076 9.5406-21.5194 13.4779-32.7025H848.202752zM789.3873 710.6294c10.5277 10.5001 16.297 24.5555 16.297 39.594 0 15.0108-5.7692 29.0673-16.297 39.5909-21.0504 21.0278-58.1294 21.0278-79.1808 0l-43.1186-43.1452-18.4842 10.3629c-18.647 10.4172-38.826 18.7556-60.0177 24.7695l-20.3694 5.7723v61.057024c0 30.8675-25.1279 55.9933-55.9985 55.9933s-55.9985-25.1259-55.9985-55.9933v-61.057024l-20.3674-5.7723c-21.2183-6.0416-41.4259-14.3534-60.0156-24.7695l-18.4852-10.3363-43.1206 43.1176c-21.0534 21.0278-58.1294 21.0278-79.1828 0-10.5267-10.5236-16.2939-24.5801-16.2939-39.5909 0-15.0385 5.7672-29.0939 16.2939-39.594l43.1176-43.1165-10.3588-18.4852c-10.3916-18.5907-18.7054-38.7697-24.746-60.0412l-5.7733-20.3448h-61.053951999999995c-30.8695 0-55.9954-25.1279-55.9954-55.9964 0-30.8705 25.1249-55.9985 55.9954-55.9985h61.053951999999995l5.7733-20.3704c6.0406-21.2449 14.3544-41.4505 24.746-60.0156l10.3588-18.4832-43.1176-43.1186c-10.5267-10.5277-16.2939-24.5811-16.2939-39.5919 0-15.0395 5.7672-29.0939 16.2939-39.5919 21.0545-21.0278 58.1304-21.0278 79.1828 0l43.1206 43.1176 18.4852-10.3608c18.5897-10.3905 38.7983-18.731 60.0156-24.746l20.3674-5.7702v-61.056000000000004c0-30.8951 25.1279-55.9964 55.9985-55.9964s55.9985 25.1013 55.9985 55.9964v61.056000000000004l20.3694 5.7702c21.1917 6.016 41.3706 14.3278 60.0177 24.7716l18.4842 10.3352 43.1186-43.1176c21.0524-21.0278 58.1315-21.0278 79.1808 0 10.5277 10.498 16.297 24.5524 16.297 39.5919 0 15.0108-5.7692 29.0642-16.297 39.5919l-43.0909 43.1186 10.3076 18.4832c10.4479 18.6737 18.7832 38.8813 24.7706 60.0156l5.7733 20.3704h61.053951999999995c30.8695 0 55.9974 25.1279 55.9974 55.9985 0 30.8685-25.1279 55.9964-55.9974 55.9964h-61.053951999999995l-5.7733 20.3448c-5.9884 21.161-14.3227 41.342-24.7706 60.0412l-10.3076 18.4852L789.3873 710.6294zM512.2181 344.6528c-92.6372 0-167.9913 75.3551-167.9913 167.9923 0 92.6351 75.3541 167.9913 167.9913 167.9913s167.9913-75.3562 167.9913-167.9913C680.2094 420.0079 604.8553 344.6528 512.2181 344.6528zM512.2181 624.638c-61.7636 0-111.9928-50.2538-111.9928-111.9928 0-61.7667 50.2292-111.9949 111.9928-111.9949 61.7656 0 111.9949 50.2282 111.9949 111.9949C624.213 574.3841 573.9848 624.638 512.2181 624.638z" p-id="13830"></path></svg>