<?xml version="1.0" encoding="utf-8"?>
<!-- Generator: Adobe Illustrator 21.0.2, SVG Export Plug-In . SVG Version: 6.00 Build 0)  -->
<svg version="1.1" id="图层_1" xmlns="http://www.w3.org/2000/svg" xmlns:xlink="http://www.w3.org/1999/xlink" x="0px" y="0px"
	 viewBox="0 0 32 32" style="enable-background:new 0 0 32 32;" xml:space="preserve">
<style type="text/css">
	.st0{fill:#F98D0F;}
</style>
<path class="st0" d="M31.7,30.2l-5.4-5.4c2.3-2.6,3.7-6.1,3.7-9.9c0-8.3-6.7-15-15-15S0,6.7,0,15s6.7,15,15,15
	c3.8,0,7.3-1.4,9.9-3.7l5.4,5.4c0.2,0.2,0.5,0.3,0.7,0.3s0.5-0.1,0.7-0.3C32.1,31.3,32.1,30.6,31.7,30.2z M15,28
	c-1.8,0-3.5-0.3-5.1-1c-1.5-0.7-2.9-1.6-4.1-2.8S3.7,21.6,3,20.1c-0.7-1.6-1-3.3-1-5.1s0.3-3.5,1-5.1C3.7,8.4,4.6,7,5.8,5.8
	S8.4,3.7,9.9,3c1.6-0.7,3.3-1,5.1-1s3.5,0.3,5.1,1c1.5,0.7,2.9,1.6,4.1,2.8s2.1,2.6,2.8,4.1c0.7,1.6,1,3.3,1,5.1s-0.3,3.5-1,5.1
	c-0.7,1.5-1.6,2.9-2.8,4.1s-2.6,2.1-4.1,2.8C18.5,27.7,16.8,28,15,28z"/>
<path class="st0" d="M21.5,7.8c-1.2,0-2.2,1-2.2,2.2c0,0.4,0.1,0.8,0.3,1.1L17.3,15c0,0-0.1,0-0.1,0c-0.2,0-0.4,0-0.6,0.1l-1.6-1.6
	c0.1-0.2,0.1-0.4,0.1-0.6c0-1.2-1-2.2-2.2-2.2s-2.2,1-2.2,2.2c0,0.4,0.1,0.8,0.3,1.1l-2.3,3.9c0,0-0.1,0-0.1,0c-1.2,0-2.2,1-2.2,2.2
	s1,2.2,2.2,2.2s2.2-1,2.2-2.2c0-0.4-0.1-0.8-0.3-1.1l2.3-3.9c0,0,0.1,0,0.1,0c0.2,0,0.4,0,0.6-0.1l1.6,1.6C15,16.7,15,16.9,15,17.2
	c0,1.2,1,2.2,2.2,2.2s2.2-1,2.2-2.2c0-0.4-0.1-0.8-0.3-1.1l2.3-3.9c0,0,0.1,0,0.1,0c1.2,0,2.2-1,2.2-2.2S22.7,7.8,21.5,7.8z
	 M8.5,20.2c-0.1,0-0.2-0.1-0.2-0.2s0.1-0.2,0.2-0.2s0.2,0.1,0.2,0.2S8.6,20.2,8.5,20.2z M12.8,13c-0.1,0-0.2-0.1-0.2-0.2
	s0.1-0.2,0.2-0.2s0.2,0.1,0.2,0.2S12.9,13,12.8,13z M17.2,17.3c-0.1,0-0.2-0.1-0.2-0.2s0.1-0.2,0.2-0.2s0.2,0.1,0.2,0.2
	S17.2,17.3,17.2,17.3z M21.5,10.1c-0.1,0-0.2-0.1-0.2-0.2s0.1-0.2,0.2-0.2s0.2,0.1,0.2,0.2S21.6,10.1,21.5,10.1z"/>
</svg>
