<?xml version="1.0" encoding="utf-8"?>
<!-- Generator: Adobe Illustrator 21.0.2, SVG Export Plug-In . SVG Version: 6.00 Build 0)  -->
<svg version="1.1" id="图层_1" xmlns="http://www.w3.org/2000/svg" xmlns:xlink="http://www.w3.org/1999/xlink" x="0px" y="0px"
	 viewBox="0 0 32 32" style="enable-background:new 0 0 32 32;" xml:space="preserve">
<style type="text/css">
	.st0{fill:#666666;}
</style>
<path class="st0" d="M16,4.4c-5,0-9.4,3.2-11,7.8l1.6,0.5c1.4-4,5.2-6.7,9.4-6.7c4.9,0,9,3.6,9.8,8.3l-1.4-1l-0.9,1.4l2.8,1.9
	c0.1,0.1,0.3,0.1,0.5,0.1c0.1,0,0.3,0,0.4-0.1c0.3-0.1,0.4-0.4,0.4-0.7C27.6,9.6,22.4,4.4,16,4.4L16,4.4z M16,25.9
	c-4.9,0-9-3.6-9.8-8.3l1.4,1l0.9-1.4l-2.8-1.9c-0.3-0.2-0.6-0.2-0.8,0S4.4,15.7,4.4,16c0,6.4,5.2,11.6,11.6,11.6c5,0,9.4-3.2,11-7.8
	l-1.6-0.5C24,23.2,20.3,25.9,16,25.9L16,25.9z M20.3,10.5l-1.2-1.2L16,12.5l-3.1-3.1l-1.2,1.2l3.5,3.5v0.3h-3.3V16h3.3v1.7h-3.3v1.7
	h3.3v2.5h1.7v-2.5h3.3v-1.7h-3.3V16h3.3v-1.7h-3.3V14L20.3,10.5z"/>
</svg>
